<svg xmlns="http://www.w3.org/2000/svg" xmlns:xlink="http://www.w3.org/1999/xlink" width="222.25mm" height="157.48mm" viewBox="3990 3484.5 350 248"><title></title><style type="text/css">
*[layerid="1"] {stroke:#FF0000;fill:#FF0000;}
*[layerid="2"] {stroke:#0000FF;fill:#0000FF;}
*[layerid="3"] {stroke:#FFCC00;fill:#FFCC00;}
*[layerid="4"] {stroke:#66CC33;fill:#66CC33;}
*[layerid="5"] {stroke:#808080;fill:#808080;}
*[layerid="6"] {stroke:#800000;fill:#800000;}
*[layerid="7"] {stroke:#800080;fill:#800080;stroke-opacity:0.7;fill-opacity:0.7;}
*[layerid="8"] {stroke:#AA00FF;fill:#AA00FF;stroke-opacity:0.7;fill-opacity:0.7;}
*[layerid="9"] {stroke:#6464FF;fill:#6464FF;}
*[layerid="10"] {stroke:#FF00FF;fill:#FF00FF;}
*[layerid="11"] {stroke:#C0C0C0;fill:#C0C0C0;}
*[layerid="12"] {stroke:#FFFFFF;fill:#FFFFFF;}
*[layerid="13"] {stroke:#33CC99;fill:#33CC99;}
*[layerid="14"] {stroke:#5555FF;fill:#5555FF;}
*[layerid="15"] {stroke:#F022F0;fill:#F022F0;}
*[layerid="19"] {stroke:#66CCFF;fill:#66CCFF;}
*[layerid="21"] {stroke:#999966;fill:#999966;}
*[layerid="22"] {stroke:#008000;fill:#008000;}
*[layerid="23"] {stroke:#00FF00;fill:#00FF00;}
*[layerid="24"] {stroke:#BC8E00;fill:#BC8E00;}
*[layerid="25"] {stroke:#70DBFA;fill:#70DBFA;}
*[layerid="26"] {stroke:#00CC66;fill:#00CC66;}
*[layerid="27"] {stroke:#9966FF;fill:#9966FF;}
*[layerid="28"] {stroke:#800080;fill:#800080;}
*[layerid="29"] {stroke:#008080;fill:#008080;}
*[layerid="30"] {stroke:#15935F;fill:#15935F;}
*[layerid="31"] {stroke:#000080;fill:#000080;}
*[layerid="32"] {stroke:#00B400;fill:#00B400;}
*[layerid="33"] {stroke:#2E4756;fill:#2E4756;}
*[layerid="34"] {stroke:#99842F;fill:#99842F;}
*[layerid="35"] {stroke:#FFFFAA;fill:#FFFFAA;}
*[layerid="36"] {stroke:#99842F;fill:#99842F;}
*[layerid="37"] {stroke:#2E4756;fill:#2E4756;}
*[layerid="38"] {stroke:#3535FF;fill:#3535FF;}
*[layerid="39"] {stroke:#8000BC;fill:#8000BC;}
*[layerid="40"] {stroke:#43AE5F;fill:#43AE5F;}
*[layerid="41"] {stroke:#C3ECCE;fill:#C3ECCE;}
*[layerid="42"] {stroke:#728978;fill:#728978;}
*[layerid="43"] {stroke:#39503F;fill:#39503F;}
*[layerid="44"] {stroke:#0C715D;fill:#0C715D;}
*[layerid="45"] {stroke:#5A8A80;fill:#5A8A80;}
*[layerid="46"] {stroke:#2B937E;fill:#2B937E;}
*[layerid="47"] {stroke:#23999D;fill:#23999D;}
*[layerid="48"] {stroke:#45B4E3;fill:#45B4E3;}
*[layerid="49"] {stroke:#215DA1;fill:#215DA1;}
*[layerid="50"] {stroke:#4564D7;fill:#4564D7;}
*[layerid="51"] {stroke:#6969E9;fill:#6969E9;}
*[layerid="52"] {stroke:#9069E9;fill:#9069E9;}
*[layerid="99"] {stroke:#00CCCC;fill:#00CCCC;stroke-opacity:0.6;fill-opacity:0.6;}
*[layerid="100"] {stroke:#CC9999;fill:#CC9999;}
*[layerid="101"] {stroke:#66FFCC;fill:#66FFCC;}
*[layerid="Hole"] {stroke:#222222;fill:#222222;}
*[layerid="DRCError"] {stroke:#FAD609;fill:#FAD609;}
*[fill="none"] {fill: none;}
*[stroke="none"] {stroke: none;}
path, polyline, polygon, line {stroke-linecap:round;}
g[c_partid="part_pad"][layerid="1"] ellipse:not([c_etype="pad_outer"]) {fill:#FF0000;}
g[c_partid="part_pad"][layerid="1"] polygon:not([c_etype="pad_outer"]) {fill:#FF0000;}
g[c_partid="part_pad"][layerid="1"] polyline:not([c_etype="pad_outer"]) {stroke:#FF0000;}
g[c_partid="part_pad"][layerid="2"] ellipse:not([c_etype="pad_outer"]) {fill:#0000FF;}
g[c_partid="part_pad"][layerid="2"] polygon:not([c_etype="pad_outer"]) {fill:#0000FF;}
g[c_partid="part_pad"][layerid="2"] polyline:not([c_etype="pad_outer"]) {stroke:#0000FF;}
g[c_partid="part_pad"][layerid="11"] ellipse:not([c_etype="pad_outer"]) {fill:#C0C0C0;}
g[c_partid="part_pad"][layerid="11"] polygon:not([c_etype="pad_outer"]) {fill:#C0C0C0;}
g[c_partid="part_pad"][layerid="11"] polyline:not([c_etype="pad_outer"]) {stroke:#C0C0C0;}
g[c_partid="part_pad"][layerid="11"] circle {fill:#222222;}
g[c_partid="part_pad"][layerid="11"] > polyline:nth-of-type(2) {stroke:#222222;}
g[c_partid="part_pad"][layerid="11"][c_shape="ELLIPSE"]  polyline:nth-last-of-type(1) {stroke:#222222;}
g[c_partid="part_pad"][layerid="11"][c_shape="RECT"]  polyline:nth-last-of-type(1) {stroke:#222222;}
g[c_partid="part_pad"][layerid="11"][c_shape="POLYGON"]  polyline:nth-last-of-type(1) {stroke:#222222;}
g[c_partid="part_via"] > * + circle, #gCurParts g[c_partid="part_via"] > * + circle {fill:#222222;}
g[c_partid="part_pad"] > polygon[c_etype="pad_outer"], #gCurParts g[c_partid="part_pad"] > polygon[c_etype="pad_outer"] {stroke-linejoin: round;stroke-miterlimit: 100;}
g[c_partid="part_hole"] > circle {fill: #222222;}path, polyline, polygon {stroke-linejoin:round;}
rect, circle, ellipse, polyline, line, polygon, path {shape-rendering:crispEdges;}
</style>
<rect x="3990" y="3484.5" width="350" height="248" fill="#000000" stroke="none"/><path d="M 4175.9 3701.48 L 4175.74693 3701.44955 4175.61716 3701.36284 4175.53045 3701.23307 4175.5 3701.08 4175.5 3691.99561 4175.53934 3691.82262 4175.61716 3691.70764 4175.53045 3691.57787 4175.5 3691.4248 4175.5 3688.5752 4175.53045 3688.42213 4175.62594 3688.28649 4175.53934 3688.17738 4175.5 3688.00439 4175.5 3621.5872 4175.53321 3621.42762 4175.62734 3621.29453 4175.76674 3621.21005 4175.92828 3621.1882 4176.08512 3621.23262 4176.21121 3621.33591 4176.3835 3621.54929 4176.66858 3621.80019 4176.99197 3621.99931 4177.34435 3622.14091 4177.7156 3622.22092 4178.09503 3622.23704 4178.47172 3622.1888 4178.83485 3622.07759 4179.17395 3621.90662 4179.47929 3621.6808 4179.74206 3621.40662 4179.95473 3621.09198 4180.11115 3620.74592 4180.20685 3620.3784 4180.23905 3620 4180.20685 3619.6216 4180.11115 3619.25408 4179.95473 3618.90802 4179.74206 3618.59338 4179.47929 3618.3192 4179.17395 3618.09338 4178.83485 3617.92241 4178.47172 3617.8112 4178.09503 3617.76296 4177.93314 3617.73592 4177.79575 3617.64614 4175.61716 3615.46755 4175.53045 3615.33778 4175.5 3615.18471 4175.5 3503.92 4175.53045 3503.76693 4175.61716 3503.63716 4175.74693 3503.55045 4175.9 3503.52 4301.96156 3503.52 4302.57956 3503.55659 4303.1294 3503.65257 4303.66504 3503.8095 4304.17974 3504.02542 4304.66703 3504.29761 4305.12078 3504.62264 4305.53528 3504.99644 4305.90532 3505.41429 4306.22626 3505.87095 4306.49404 3506.36068 4306.70532 3506.8773 4306.85741 3507.41433 4306.94843 3507.96502 4306.98 3508.53844 4306.98 3696.46156 4306.94341 3697.07956 4306.84743 3697.6294 4306.6905 3698.16504 4306.47458 3698.67974 4306.20239 3699.16703 4305.87736 3699.62078 4305.50356 3700.03528 4305.08571 3700.40532 4304.62905 3700.72626 4304.13932 3700.99404 4303.6227 3701.20532 4303.08567 3701.35741 4302.53498 3701.44843 4301.96156 3701.48 4175.9 3701.48 Z M 4292.59503 3667.65804 L 4292.97172 3667.6098 4293.33485 3667.49859 4293.67395 3667.32762 4293.97929 3667.1018 4294.24206 3666.82762 4294.45473 3666.51298 4294.61115 3666.16692 4294.70685 3665.7994 4294.73905 3665.421 4294.70685 3665.0426 4294.61115 3664.67508 4294.45473 3664.32902 4294.24206 3664.01438 4294.13122 3663.89873 4294.04884 3663.77109 4294.02 3663.62195 4294.02 3645.25015 4294.0554 3645.08563 4294.15533 3644.95023 4294.3021 3644.86792 4294.46974 3644.85325 4294.62857 3644.90883 4294.7505 3645.02482 4294.97547 3645.3548 4295.27917 3645.6821 4295.62825 3645.96049 4296.01493 3646.18373 4296.43055 3646.34686 4296.86425 3646.44585 4296.86425 3644.72645 4294.42 3644.72645 4294.26693 3644.696 4294.13716 3644.60929 4294.05045 3644.47952 4294.02 3644.32645 4294.02 3642.65795 4294.05045 3642.50488 4294.13716 3642.37511 4294.26693 3642.2884 4294.42 3642.25795 4296.86425 3642.25795 4296.86425 3640.53855 4296.43055 3640.63754 4296.01493 3640.80067 4295.62825 3641.02391 4295.27917 3641.3023 4294.97547 3641.6296 4294.7505 3641.95958 4294.62857 3642.07557 4294.46974 3642.13115 4294.3021 3642.11648 4294.15533 3642.03417 4294.0554 3641.89877 4294.02 3641.73425 4294.02 3624.29905 4294.04884 3624.14991 4294.13122 3624.02227 4294.24206 3623.90662 4294.45473 3623.59198 4294.61115 3623.24592 4294.70685 3622.8784 4294.73905 3622.5 4294.70685 3622.1216 4294.61115 3621.75408 4294.45473 3621.40802 4294.24206 3621.09338 4293.97929 3620.8192 4293.67395 3620.59338 4293.33485 3620.42241 4292.97172 3620.3112 4292.59503 3620.26296 4292.2156 3620.27908 4291.84435 3620.35909 4291.49197 3620.50069 4291.16858 3620.69981 4290.8835 3620.95071 4290.64492 3621.24619 4290.45971 3621.57773 4290.33319 3621.93581 4290.26901 3622.31011 4290.26901 3622.68989 4290.33319 3623.06419 4290.45971 3623.42227 4290.64492 3623.75381 4290.89121 3624.05884 4290.95715 3624.17687 4290.98 3624.31013 4290.98 3663.61087 4290.95715 3663.74413 4290.89121 3663.86216 4290.64492 3664.16719 4290.45971 3664.49873 4290.33319 3664.85681 4290.26901 3665.23111 4290.26901 3665.61089 4290.33319 3665.98519 4290.45971 3666.34327 4290.64492 3666.67481 4290.8835 3666.97029 4291.16858 3667.22119 4291.49197 3667.42031 4291.84435 3667.56191 4292.2156 3667.64192 4292.59503 3667.65804 Z M 4225.59503 3634.74704 L 4225.97172 3634.6988 4226.33485 3634.58759 4226.67395 3634.41662 4226.97929 3634.1908 4227.24206 3633.91662 4227.45473 3633.60198 4227.61115 3633.25592 4227.70685 3632.8884 4227.73905 3632.51 4227.70685 3632.1316 4227.61115 3631.76408 4227.45473 3631.41802 4227.24206 3631.10338 4227.13122 3630.98773 4227.04884 3630.86009 4227.02 3630.71095 4227.02 3609.29905 4227.04884 3609.14991 4227.13122 3609.02227 4227.24206 3608.90662 4227.45473 3608.59198 4227.61115 3608.24592 4227.70685 3607.8784 4227.73905 3607.5 4227.70685 3607.1216 4227.61115 3606.75408 4227.45473 3606.40802 4227.24206 3606.09338 4226.97929 3605.8192 4226.67395 3605.59338 4226.33485 3605.42241 4225.97172 3605.3112 4225.59503 3605.26296 4225.2156 3605.27908 4224.84435 3605.35909 4224.49197 3605.50069 4224.16858 3605.69981 4223.8835 3605.95071 4223.64492 3606.24619 4223.45971 3606.57773 4223.33319 3606.93581 4223.26901 3607.31011 4223.26901 3607.68989 4223.33319 3608.06419 4223.45971 3608.42227 4223.64492 3608.75381 4223.89121 3609.05884 4223.95715 3609.17687 4223.98 3609.31013 4223.98 3630.69987 4223.95715 3630.83313 4223.89121 3630.95116 4223.64492 3631.25619 4223.45971 3631.58773 4223.33319 3631.94581 4223.26901 3632.32011 4223.26901 3632.69989 4223.33319 3633.07419 4223.45971 3633.43227 4223.64492 3633.76381 4223.8835 3634.05929 4224.16858 3634.31019 4224.49197 3634.50931 4224.84435 3634.65091 4225.2156 3634.73092 4225.59503 3634.74704 Z M 4268.59503 3672.18604 L 4268.97172 3672.1378 4269.33485 3672.02659 4269.67395 3671.85562 4269.97929 3671.6298 4270.24206 3671.35562 4270.45473 3671.04098 4270.61115 3670.69492 4270.70685 3670.3274 4270.73905 3669.949 4270.70685 3669.5706 4270.61115 3669.20308 4270.55551 3669.07998 4270.52 3668.91522 4270.52 3652.08478 4270.55551 3651.92002 4270.61115 3651.79692 4270.70685 3651.4294 4270.73905 3651.051 4270.70685 3650.6726 4270.61115 3650.30508 4270.45473 3649.95902 4270.24206 3649.64438 4269.97929 3649.3702 4269.67395 3649.14438 4269.33485 3648.97341 4268.97172 3648.8622 4268.59503 3648.81396 4268.2156 3648.83008 4267.84435 3648.91009 4267.49197 3649.05169 4267.16858 3649.25081 4266.8835 3649.50171 4266.64492 3649.79719 4266.45971 3650.12873 4266.33319 3650.48681 4266.26901 3650.86111 4266.26901 3651.24089 4266.33319 3651.61519 4266.45715 3651.96603 4266.48 3652.09928 4266.48 3668.90072 4266.45715 3669.03397 4266.33319 3669.38481 4266.26901 3669.75911 4266.26901 3670.13889 4266.33319 3670.51319 4266.45971 3670.87127 4266.64492 3671.20281 4266.8835 3671.49829 4267.16858 3671.74919 4267.49197 3671.94831 4267.84435 3672.08991 4268.2156 3672.16992 4268.59503 3672.18604 Z M 4193.12714 3694.1696 L 4193.37601 3694.14156 4193.59106 3694.06631 4193.78398 3693.94509 4193.94509 3693.78398 4194.06631 3693.59106 4194.14156 3693.37601 4194.1696 3693.12714 4194.1696 3686.87286 4194.14156 3686.62399 4194.06631 3686.40894 4193.94509 3686.21602 4193.78398 3686.05491 4193.59106 3685.93369 4193.37601 3685.85844 4193.12714 3685.8304 4186.87286 3685.8304 4186.62399 3685.85844 4186.40894 3685.93369 4186.21602 3686.05491 4186.05491 3686.21602 4185.93369 3686.40894 4185.85844 3686.62399 4185.8304 3686.87286 4185.8304 3693.12714 4185.85844 3693.37601 4185.93369 3693.59106 4186.05491 3693.78398 4186.21602 3693.94509 4186.40894 3694.06631 4186.62399 3694.14156 4186.87286 3694.1696 4193.12714 3694.1696 Z M 4287.03143 3676.27355 L 4286.9065 3676.01411 4286.65498 3675.6452 4286.35128 3675.3179 4286.0022 3675.03951 4285.61552 3674.81627 4285.21644 3674.65964 4285.08627 3674.57652 4284.99729 3674.45028 4284.96277 3674.29975 4284.98785 3674.14736 4285.06879 3674.01583 4285.19353 3673.92476 4285.49779 3673.78289 4285.81186 3673.56297 4286.08297 3673.29186 4286.30289 3672.97779 4286.46492 3672.6303 4286.56416 3672.25995 4286.59757 3671.878 4286.56416 3671.49605 4286.46492 3671.1257 4286.30289 3670.77821 4286.08297 3670.46414 4285.81186 3670.19303 4285.49779 3669.97311 4285.1503 3669.81108 4284.77995 3669.71184 4284.398 3669.67843 4284.01605 3669.71184 4283.6457 3669.81108 4283.29821 3669.97311 4282.98414 3670.19303 4282.71303 3670.46414 4282.49311 3670.77821 4282.33108 3671.1257 4282.23184 3671.49605 4282.19843 3671.878 4282.23184 3672.25995 4282.33108 3672.6303 4282.49311 3672.97779 4282.71303 3673.29186 4282.98414 3673.56297 4283.29821 3673.78289 4283.6457 3673.94492 4284.01605 3674.04416 4284.20421 3674.06062 4284.34627 3674.10035 4284.46426 3674.18886 4284.54215 3674.31412 4284.56935 3674.4591 4284.56935 3676.27355 4287.03143 3676.27355 Z M 4284.01605 3651.28816 L 4284.398 3651.32157 4284.77995 3651.28816 4285.1503 3651.18892 4285.49779 3651.02689 4285.81186 3650.80697 4286.08297 3650.53586 4286.30289 3650.22179 4286.46492 3649.8743 4286.56416 3649.50395 4286.59757 3649.122 4286.56416 3648.74005 4286.46492 3648.3697 4286.30289 3648.02221 4286.08297 3647.70814 4285.81186 3647.43703 4285.49779 3647.21711 4285.19321 3647.07509 4285.06847 3646.98402 4284.98753 3646.85249 4284.96245 3646.7001 4284.99697 3646.54957 4285.08595 3646.42333 4285.21612 3646.34022 4285.61482 3646.18373 4286.0015 3645.96049 4286.35058 3645.6821 4286.65428 3645.3548 4286.9058 3644.98589 4287.03073 3644.72645 4284.56865 3644.72645 4284.56865 3646.54097 4284.54145 3646.68594 4284.46356 3646.8112 4284.34557 3646.89971 4284.20351 3646.93944 4284.01605 3646.95584 4283.64711 3647.0547 4283.28325 3647.2276 4282.98414 3647.43703 4282.71303 3647.70814 4282.49311 3648.02221 4282.33108 3648.3697 4282.23184 3648.74005 4282.19843 3649.122 4282.23184 3649.50395 4282.33108 3649.8743 4282.49311 3650.22179 4282.71303 3650.53586 4282.98414 3650.80697 4283.29821 3651.02689 4283.6457 3651.18892 4284.01605 3651.28816 Z M 4190.09533 3684.71204 L 4190.47202 3684.6638 4190.83515 3684.55259 4191.17425 3684.38162 4191.47959 3684.1558 4191.74236 3683.88162 4191.95503 3683.56698 4192.11145 3683.22092 4192.20715 3682.8534 4192.23935 3682.475 4192.20715 3682.0966 4192.11145 3681.72908 4191.95503 3681.38302 4191.74236 3681.06838 4191.47959 3680.7942 4191.17425 3680.56838 4190.83515 3680.39741 4190.47202 3680.2862 4190.09533 3680.23796 4189.7159 3680.25408 4189.34465 3680.33409 4188.99227 3680.47569 4188.66888 3680.67481 4188.3838 3680.92571 4188.14522 3681.22119 4187.96001 3681.55273 4187.83349 3681.91081 4187.76931 3682.28511 4187.76931 3682.66489 4187.83349 3683.03919 4187.96001 3683.39727 4188.14522 3683.72881 4188.3838 3684.02429 4188.66888 3684.27519 4188.99227 3684.47431 4189.34465 3684.61591 4189.7159 3684.69592 4190.09533 3684.71204 Z M 4280.13165 3642.25795 L 4280.13165 3640.52356 4279.9364 3640.53819 4279.5011 3640.63754 4279.08548 3640.80067 4278.6988 3641.02391 4278.34972 3641.3023 4278.04602 3641.6296 4277.7945 3641.99851 4277.66957 3642.25795 4280.13165 3642.25795 Z M 4284.56865 3640.52356 L 4284.56865 3642.25795 4287.03073 3642.25795 4286.9058 3641.99851 4286.65428 3641.6296 4286.35058 3641.3023 4286.0015 3641.02391 4285.61482 3640.80067 4285.1992 3640.63754 4284.7639 3640.53819 4284.56865 3640.52356 Z M 4279.9364 3646.44621 L 4280.13165 3646.46084 4280.13165 3644.72645 4277.66957 3644.72645 4277.7945 3644.98589 4278.04602 3645.3548 4278.34972 3645.6821 4278.6988 3645.96049 4279.08548 3646.18373 4279.5011 3646.34686 4279.9364 3646.44621 Z M 4277.7952 3676.01411 L 4277.67027 3676.27355 4280.13235 3676.27355 4280.13235 3674.53916 4279.9371 3674.55379 4279.5018 3674.65314 4279.08618 3674.81627 4278.6995 3675.03951 4278.35042 3675.3179 4278.04672 3675.6452 4277.7952 3676.01411 Z M 4279.9371 3680.46181 L 4280.13235 3680.47644 4280.13235 3678.74205 4277.67027 3678.74205 4277.7952 3679.00149 4278.04672 3679.3704 4278.35042 3679.6977 4278.6995 3679.97609 4279.08618 3680.19933 4279.5018 3680.36246 4279.9371 3680.46181 Z M 4284.56935 3678.74205 L 4284.56935 3680.47644 4284.7646 3680.46181 4285.1999 3680.36246 4285.61552 3680.19933 4286.0022 3679.97609 4286.35128 3679.6977 4286.65498 3679.3704 4286.9065 3679.00149 4287.03143 3678.74205 4284.56935 3678.74205 Z M 4300.90755 3678.74205 L 4300.90755 3680.46145 4301.34125 3680.36246 4301.75687 3680.19933 4302.14355 3679.97609 4302.49263 3679.6977 4302.79633 3679.3704 4303.04785 3679.00149 4303.17278 3678.74205 4300.90755 3678.74205 Z M 4300.90755 3644.72645 L 4300.90755 3646.44585 4301.34125 3646.34686 4301.75687 3646.18373 4302.14355 3645.96049 4302.49263 3645.6821 4302.79633 3645.3548 4303.04785 3644.98589 4303.17278 3644.72645 4300.90755 3644.72645 Z M 4300.90755 3674.55415 L 4300.90755 3676.27355 4303.17278 3676.27355 4303.04785 3676.01411 4302.79633 3675.6452 4302.49263 3675.3179 4302.14355 3675.03951 4301.75687 3674.81627 4301.34125 3674.65314 4300.90755 3674.55415 Z M 4300.90755 3640.53855 L 4300.90755 3642.25795 4303.17278 3642.25795 4303.04785 3641.99851 4302.79633 3641.6296 4302.49263 3641.3023 4302.14355 3641.02391 4301.75687 3640.80067 4301.34125 3640.63754 4300.90755 3640.53855 Z M 4296.86425 3676.27355 L 4296.86425 3674.55415 4296.43055 3674.65314 4296.01493 3674.81627 4295.62825 3675.03951 4295.27917 3675.3179 4294.97547 3675.6452 4294.72395 3676.01411 4294.59902 3676.27355 4296.86425 3676.27355 Z M 4296.86425 3680.46145 L 4296.86425 3678.74205 4294.59902 3678.74205 4294.72395 3679.00149 4294.97547 3679.3704 4295.27917 3679.6977 4295.62825 3679.97609 4296.01493 3680.19933 4296.43055 3680.36246 4296.86425 3680.46145 Z M 4183.73824 3688.1752 L 4183.61024 3687.91563 4183.30729 3687.46223 4182.94775 3687.05225 4182.53777 3686.69271 4182.08437 3686.38976 4181.8248 3686.26176 4181.8248 3688.1752 4183.73824 3688.1752 Z M 4181.8248 3691.8248 L 4181.8248 3693.73824 4182.08437 3693.61024 4182.53777 3693.30729 4182.94775 3692.94775 4183.30729 3692.53777 4183.61024 3692.08437 4183.73824 3691.8248 4181.8248 3691.8248 Z M 4178.1752 3693.73824 L 4178.1752 3691.8248 4176.26176 3691.8248 4176.38976 3692.08437 4176.69271 3692.53777 4177.05225 3692.94775 4177.46223 3693.30729 4177.91563 3693.61024 4178.1752 3693.73824 Z M 4178.1752 3688.1752 L 4178.1752 3686.26176 4177.91563 3686.38976 4177.46223 3686.69271 4177.05225 3687.05225 4176.69271 3687.46223 4176.38976 3687.91563 4176.26176 3688.1752 4178.1752 3688.1752 Z " stroke-width="0" layerid="2" attachedcopperid="gge4687" c_shapetype="line" id="gge4687_0" class=""></path><path d="M 4165.25307 3701.44955 L 4165.1 3701.48 4026.03844 3701.48 4025.42044 3701.44341 4024.8706 3701.34743 4024.33496 3701.1905 4023.82026 3700.97458 4023.33297 3700.70239 4022.87922 3700.37736 4022.46472 3700.00356 4022.09468 3699.58571 4021.77374 3699.12905 4021.50596 3698.63932 4021.29468 3698.1227 4021.14259 3697.58567 4021.05157 3697.03498 4021.02 3696.46156 4021.02 3586.0046 4021.05045 3585.85153 4021.13716 3585.72176 4021.26693 3585.63505 4021.42 3585.6046 4023.2093 3585.6046 4023.35833 3585.6334 4023.4859 3585.71565 4023.57364 3585.83952 4023.60892 3585.98715 4023.58664 3586.1373 4023.51003 3586.26834 4023.15556 3586.67253 4022.85261 3587.12593 4022.72461 3587.3855 4025.6223 3587.3855 4025.6223 3586.0046 4025.65275 3585.85153 4025.73946 3585.72176 4025.86923 3585.63505 4026.0223 3585.6046 4030.8404 3585.6046 4030.99347 3585.63505 4031.12324 3585.72176 4031.20995 3585.85153 4031.2404 3586.0046 4031.2404 3587.3855 4034.13809 3587.3855 4034.01009 3587.12593 4033.70714 3586.67253 4033.35267 3586.26834 4033.27606 3586.1373 4033.25378 3585.98715 4033.28906 3585.83952 4033.3768 3585.71565 4033.50437 3585.6334 4033.6534 3585.6046 4053.5243 3585.6046 4053.67333 3585.6334 4053.8009 3585.71565 4053.88864 3585.83952 4053.92392 3585.98715 4053.90164 3586.1373 4053.82503 3586.26834 4053.47056 3586.67253 4053.16761 3587.12593 4053.03961 3587.3855 4055.9373 3587.3855 4055.9373 3586.0046 4055.96775 3585.85153 4056.05446 3585.72176 4056.18423 3585.63505 4056.3373 3585.6046 4058.7222 3585.6046 4058.97783 3585.57356 4059.19582 3585.49089 4059.39774 3585.35151 4059.51762 3585.23164 4059.62148 3585.09048 4059.71874 3584.87438 4059.7664 3584.57856 4059.7664 3532.6404 4059.73536 3532.38477 4059.65269 3532.16678 4059.51331 3531.96486 4059.39344 3531.84498 4059.25228 3531.74112 4059.0341 3531.64293 4058.74036 3531.5962 4056.3373 3531.5962 4056.18423 3531.56575 4056.05446 3531.47904 4055.96775 3531.34927 4055.9373 3531.1962 4055.9373 3529.8153 4053.03961 3529.8153 4053.16761 3530.07487 4053.47056 3530.52827 4053.82503 3530.93246 4053.90164 3531.0635 4053.92392 3531.21365 4053.88864 3531.36128 4053.8009 3531.48515 4053.67333 3531.5674 4053.5243 3531.5962 4033.65365 3531.5962 4033.50462 3531.5674 4033.37705 3531.48515 4033.28931 3531.36128 4033.25403 3531.21365 4033.27631 3531.0635 4033.35292 3530.93246 4033.70739 3530.52827 4034.01034 3530.07487 4034.13834 3529.8153 4031.24065 3529.8153 4031.24065 3531.1962 4031.2102 3531.34927 4031.12349 3531.47904 4030.99372 3531.56575 4030.84065 3531.5962 4026.02255 3531.5962 4025.86948 3531.56575 4025.73971 3531.47904 4025.653 3531.34927 4025.62255 3531.1962 4025.62255 3529.8153 4022.72486 3529.8153 4022.85286 3530.07487 4023.15581 3530.52827 4023.51028 3530.93246 4023.58689 3531.0635 4023.60917 3531.21365 4023.57389 3531.36128 4023.48615 3531.48515 4023.35858 3531.5674 4023.20955 3531.5962 4021.42 3531.5962 4021.26693 3531.56575 4021.13716 3531.47904 4021.05045 3531.34927 4021.02 3531.1962 4021.02 3508.53844 4021.05659 3507.92044 4021.15257 3507.3706 4021.3095 3506.83496 4021.52542 3506.32026 4021.79761 3505.83297 4022.12264 3505.37922 4022.49644 3504.96472 4022.91429 3504.59468 4023.37095 3504.27374 4023.86068 3504.00596 4024.3773 3503.79468 4024.91433 3503.64259 4025.46502 3503.55157 4026.03844 3503.52 4165.1 3503.52 4165.25307 3503.55045 4165.38284 3503.63716 4165.46955 3503.76693 4165.5 3503.92 4165.5 3619.68471 4165.46955 3619.83778 4165.38284 3619.96755 4162.69728 3622.65312 4162.57532 3622.73649 4162.43141 3622.76991 4162.2156 3622.77908 4161.84435 3622.85909 4161.49197 3623.00069 4161.16858 3623.19981 4160.8835 3623.45071 4160.64492 3623.74619 4160.45971 3624.07773 4160.33319 3624.43581 4160.26901 3624.81011 4160.26901 3625.18989 4160.33319 3625.56419 4160.45971 3625.92227 4160.64492 3626.25381 4160.8835 3626.54929 4161.16858 3626.80019 4161.49197 3626.99931 4161.84435 3627.14091 4162.2156 3627.22092 4162.59503 3627.23704 4162.97172 3627.1888 4163.33485 3627.07759 4163.67395 3626.90662 4163.97929 3626.6808 4164.24206 3626.40662 4164.45473 3626.09198 4164.61115 3625.74592 4164.71291 3625.35513 4164.78576 3625.20843 4164.91131 3625.10322 4165.0685 3625.05716 4165.23097 3625.07797 4165.37148 3625.16215 4165.46646 3625.29559 4165.5 3625.45592 4165.5 3701.08 4165.46955 3701.23307 4165.38284 3701.36284 4165.25307 3701.44955 Z M 4080.16313 3684.73704 L 4080.53982 3684.6888 4080.90295 3684.57759 4081.24205 3684.40662 4081.54739 3684.1808 4081.81016 3683.90662 4082.02283 3683.59198 4082.17925 3683.24592 4082.27495 3682.8784 4082.30715 3682.5 4082.27495 3682.1216 4082.17925 3681.75408 4082.12558 3681.63534 4082.09007 3681.46982 4082.1518 3649.14026 4082.16471 3649.04023 4082.20685 3648.8784 4082.23905 3648.5 4082.20685 3648.1216 4082.16714 3647.96911 4082.15423 3647.86755 4082.34902 3545.85839 4082.38453 3545.69439 4082.44215 3545.56692 4082.53785 3545.1994 4082.57005 3544.821 4082.53785 3544.4426 4082.44215 3544.07508 4082.28573 3543.72902 4082.07306 3543.41438 4081.81029 3543.1402 4081.50495 3542.91438 4081.16585 3542.74341 4080.80272 3542.6322 4080.42603 3542.58396 4080.0466 3542.60008 4079.67535 3542.68009 4079.32297 3542.82169 4078.99958 3543.02081 4078.7145 3543.27171 4078.47592 3543.56719 4078.29071 3543.89873 4078.16419 3544.25681 4078.10001 3544.63111 4078.10001 3545.01089 4078.16419 3545.38519 4078.28616 3545.73038 4078.309 3545.8644 4078.11551 3647.19545 4078.10251 3647.29584 4078.06472 3647.38976 4077.95971 3647.57773 4077.83319 3647.93581 4077.76901 3648.31011 4077.76901 3648.68989 4077.83319 3649.06419 4077.95971 3649.42227 4078.05975 3649.60135 4078.09773 3649.696 4078.11054 3649.79719 4078.05011 3681.4468 4078.02726 3681.57929 4077.90129 3681.93581 4077.83711 3682.31011 4077.83711 3682.68989 4077.90129 3683.06419 4078.02781 3683.42227 4078.21302 3683.75381 4078.4516 3684.04929 4078.73668 3684.30019 4079.06007 3684.49931 4079.41245 3684.64091 4079.7837 3684.72092 4080.16313 3684.73704 Z M 4037.09503 3696.73704 L 4037.47172 3696.6888 4037.83485 3696.57759 4038.17395 3696.40662 4038.47929 3696.1808 4038.74206 3695.90662 4038.95473 3695.59198 4039.11115 3695.24592 4039.20685 3694.8784 4039.23905 3694.5 4039.20685 3694.1216 4039.11115 3693.75408 4038.95473 3693.40802 4038.74206 3693.09338 4038.63122 3692.97773 4038.54884 3692.85009 4038.52 3692.70095 4038.52 3656.42 4038.55045 3656.26693 4038.63716 3656.13716 4038.76693 3656.05045 4038.92 3656.02 4039.69927 3656.02 4039.8405 3656.04576 4039.96354 3656.11973 4040.16858 3656.30019 4040.49197 3656.49931 4040.84435 3656.64091 4041.2156 3656.72092 4041.59503 3656.73704 4041.97172 3656.6888 4042.33485 3656.57759 4042.67395 3656.40662 4042.97929 3656.1808 4043.24206 3655.90662 4043.45473 3655.59198 4043.61115 3655.24592 4043.70685 3654.8784 4043.73905 3654.5 4043.70685 3654.1216 4043.61115 3653.75408 4043.45473 3653.40802 4043.24206 3653.09338 4042.97929 3652.8192 4042.67395 3652.59338 4042.33485 3652.42241 4041.97172 3652.3112 4041.59503 3652.26296 4041.2156 3652.27908 4040.84435 3652.35909 4040.49197 3652.50069 4040.16858 3652.69981 4039.96354 3652.88027 4039.8405 3652.95424 4039.69927 3652.98 4037.01965 3652.98 4036.70384 3653.0111 4036.41906 3653.09749 4036.15661 3653.23778 4035.92657 3653.42657 4035.73778 3653.65661 4035.59749 3653.91906 4035.5111 3654.20384 4035.48 3654.51965 4035.48 3692.68987 4035.45715 3692.82313 4035.39121 3692.94116 4035.14492 3693.24619 4034.95971 3693.57773 4034.83319 3693.93581 4034.76901 3694.31011 4034.76901 3694.68989 4034.83319 3695.06419 4034.95971 3695.42227 4035.14492 3695.75381 4035.3835 3696.04929 4035.66858 3696.30019 4035.99197 3696.49931 4036.34435 3696.64091 4036.7156 3696.72092 4037.09503 3696.73704 Z M 4085.59503 3621.97704 L 4085.97172 3621.9288 4086.33485 3621.81759 4086.67395 3621.64662 4086.97929 3621.4208 4087.24206 3621.14662 4087.45473 3620.83198 4087.61115 3620.48592 4087.70685 3620.1184 4087.73905 3619.74 4087.70685 3619.3616 4087.61115 3618.99408 4087.45473 3618.64802 4087.24206 3618.33338 4087.13122 3618.21773 4087.04884 3618.09009 4087.02 3617.94095 4087.02 3556.79905 4087.04884 3556.64991 4087.13122 3556.52227 4087.24206 3556.40662 4087.45473 3556.09198 4087.61115 3555.74592 4087.70685 3555.3784 4087.73905 3555 4087.70685 3554.6216 4087.61115 3554.25408 4087.45473 3553.90802 4087.24206 3553.59338 4086.97929 3553.3192 4086.67395 3553.09338 4086.33485 3552.92241 4085.97172 3552.8112 4085.59503 3552.76296 4085.2156 3552.77908 4084.84435 3552.85909 4084.49197 3553.00069 4084.16858 3553.19981 4083.8835 3553.45071 4083.64492 3553.74619 4083.45971 3554.07773 4083.33319 3554.43581 4083.26901 3554.81011 4083.26901 3555.18989 4083.33319 3555.56419 4083.45971 3555.92227 4083.64492 3556.25381 4083.89121 3556.55884 4083.95715 3556.67687 4083.98 3556.81013 4083.98 3617.92987 4083.95715 3618.06313 4083.89121 3618.18116 4083.64492 3618.48619 4083.45971 3618.81773 4083.33319 3619.17581 4083.26901 3619.55011 4083.26901 3619.92989 4083.33319 3620.30419 4083.45971 3620.66227 4083.64492 3620.99381 4083.8835 3621.28929 4084.16858 3621.54019 4084.49197 3621.73931 4084.84435 3621.88091 4085.2156 3621.96092 4085.59503 3621.97704 Z M 4140 3694.16874 L 4140.54413 3694.13308 4141.07895 3694.0267 4141.59531 3693.85142 4142.08437 3693.61024 4142.53777 3693.30729 4142.94775 3692.94775 4143.30729 3692.53777 4143.61024 3692.08437 4143.85142 3691.59531 4144.0267 3691.07895 4144.13308 3690.54413 4144.16874 3690 4144.13308 3689.45587 4144.0267 3688.92105 4143.85142 3688.40469 4143.61024 3687.91563 4143.30729 3687.46223 4142.94775 3687.05225 4142.53777 3686.69271 4142.08437 3686.38976 4141.59531 3686.14858 4141.07895 3685.9733 4140.54413 3685.86692 4140 3685.83126 4139.45587 3685.86692 4138.92105 3685.9733 4138.40469 3686.14858 4137.91563 3686.38976 4137.46223 3686.69271 4137.05225 3687.05225 4136.69271 3687.46223 4136.38976 3687.91563 4136.14858 3688.40469 4135.9733 3688.92105 4135.86692 3689.45587 4135.83126 3690 4135.86692 3690.54413 4135.9733 3691.07895 4136.14858 3691.59531 4136.38976 3692.08437 4136.69271 3692.53777 4137.05225 3692.94775 4137.46223 3693.30729 4137.91563 3693.61024 4138.40469 3693.85142 4138.92105 3694.0267 4139.45587 3694.13308 4140 3694.16874 Z M 4043.602 3650.32157 L 4043.98395 3650.28816 4044.3543 3650.18892 4044.70179 3650.02689 4045.01586 3649.80697 4045.28697 3649.53586 4045.50689 3649.22179 4045.66892 3648.8743 4045.76816 3648.50395 4045.80157 3648.122 4045.76816 3647.74005 4045.66892 3647.3697 4045.50689 3647.02221 4045.28697 3646.70814 4045.01586 3646.43703 4044.70179 3646.21711 4044.3543 3646.05508 4043.98395 3645.95584 4043.79579 3645.93938 4043.65373 3645.89965 4043.53574 3645.81114 4043.45785 3645.68588 4043.43065 3645.5409 4043.43065 3643.72645 4040.96857 3643.72645 4041.0935 3643.98589 4041.34502 3644.3548 4041.64872 3644.6821 4041.9978 3644.96049 4042.38448 3645.18373 4042.78356 3645.34036 4042.91373 3645.42348 4043.00271 3645.54972 4043.03723 3645.70025 4043.01215 3645.85264 4042.93121 3645.98417 4042.80647 3646.07524 4042.50221 3646.21711 4042.18814 3646.43703 4041.91703 3646.70814 4041.69711 3647.02221 4041.53508 3647.3697 4041.43584 3647.74005 4041.40243 3648.122 4041.43584 3648.50395 4041.53508 3648.8743 4041.69711 3649.22179 4041.91703 3649.53586 4042.18814 3649.80697 4042.50221 3650.02689 4042.8497 3650.18892 4043.22005 3650.28816 4043.602 3650.32157 Z M 4043.43135 3675.27355 L 4043.43135 3673.45903 4043.45855 3673.31406 4043.53644 3673.1888 4043.65443 3673.10029 4043.79649 3673.06056 4043.98395 3673.04416 4044.35289 3672.9453 4044.71675 3672.7724 4045.01586 3672.56297 4045.28697 3672.29186 4045.50689 3671.97779 4045.66892 3671.6303 4045.76816 3671.25995 4045.80157 3670.878 4045.76816 3670.49605 4045.66892 3670.1257 4045.50689 3669.77821 4045.28697 3669.46414 4045.01586 3669.19303 4044.70179 3668.97311 4044.3543 3668.81108 4043.98395 3668.71184 4043.602 3668.67843 4043.22005 3668.71184 4042.8497 3668.81108 4042.50221 3668.97311 4042.18814 3669.19303 4041.91703 3669.46414 4041.69711 3669.77821 4041.53508 3670.1257 4041.43584 3670.49605 4041.40243 3670.878 4041.43584 3671.25995 4041.53508 3671.6303 4041.69711 3671.97779 4041.91703 3672.29186 4042.18814 3672.56297 4042.50221 3672.78289 4042.80679 3672.92491 4042.93153 3673.01598 4043.01247 3673.14751 4043.03755 3673.2999 4043.00303 3673.45043 4042.91405 3673.57667 4042.78388 3673.65978 4042.38518 3673.81627 4041.9985 3674.03951 4041.64942 3674.3179 4041.34572 3674.6452 4041.0942 3675.01411 4040.96927 3675.27355 4043.43135 3675.27355 Z M 4139.7156 3684.72092 L 4140.09503 3684.73704 4140.47172 3684.6888 4140.83485 3684.57759 4141.17395 3684.40662 4141.47929 3684.1808 4141.74206 3683.90662 4141.95473 3683.59198 4142.11115 3683.24592 4142.20685 3682.8784 4142.23905 3682.5 4142.20685 3682.1216 4142.11115 3681.75408 4141.95473 3681.40802 4141.74206 3681.09338 4141.47929 3680.8192 4141.17395 3680.59338 4140.83485 3680.42241 4140.47172 3680.3112 4140.09503 3680.26296 4139.7156 3680.27908 4139.34435 3680.35909 4138.99197 3680.50069 4138.66858 3680.69981 4138.3835 3680.95071 4138.14492 3681.24619 4137.95971 3681.57773 4137.83319 3681.93581 4137.76901 3682.31011 4137.76901 3682.68989 4137.83319 3683.06419 4137.95971 3683.42227 4138.14492 3683.75381 4138.3835 3684.04929 4138.66858 3684.30019 4138.99197 3684.49931 4139.34435 3684.64091 4139.7156 3684.72092 Z M 4055.9373 3593.28442 L 4055.9373 3591.0351 4053.03961 3591.0351 4053.16761 3591.29467 4053.47056 3591.74807 4053.8301 3592.15805 4054.24008 3592.51759 4054.69348 3592.82054 4055.18254 3593.06172 4055.6989 3593.237 4055.9373 3593.28442 Z M 4055.9373 3526.1657 L 4055.9373 3523.91638 4055.6989 3523.9638 4055.18254 3524.13908 4054.69348 3524.38026 4054.24008 3524.68321 4053.8301 3525.04275 4053.47056 3525.45273 4053.16761 3525.90613 4053.03961 3526.1657 4055.9373 3526.1657 Z M 4061.5554 3591.0351 L 4061.5554 3593.28442 4061.7938 3593.237 4062.31016 3593.06172 4062.79922 3592.82054 4063.25262 3592.51759 4063.6626 3592.15805 4064.02214 3591.74807 4064.32509 3591.29467 4064.45309 3591.0351 4061.5554 3591.0351 Z M 4031.2404 3593.28442 L 4031.4788 3593.237 4031.99516 3593.06172 4032.48422 3592.82054 4032.93762 3592.51759 4033.3476 3592.15805 4033.70714 3591.74807 4034.01009 3591.29467 4034.13809 3591.0351 4031.2404 3591.0351 4031.2404 3593.28442 Z M 4031.24065 3523.91638 L 4031.24065 3526.1657 4034.13834 3526.1657 4034.01034 3525.90613 4033.70739 3525.45273 4033.34785 3525.04275 4032.93787 3524.68321 4032.48447 3524.38026 4031.99541 3524.13908 4031.47905 3523.9638 4031.24065 3523.91638 Z M 4061.5554 3523.91638 L 4061.5554 3526.1657 4064.45309 3526.1657 4064.32509 3525.90613 4064.02214 3525.45273 4063.6626 3525.04275 4063.25262 3524.68321 4062.79922 3524.38026 4062.31016 3524.13908 4061.7938 3523.9638 4061.5554 3523.91638 Z M 4025.3839 3593.237 L 4025.6223 3593.28442 4025.6223 3591.0351 4022.72461 3591.0351 4022.85261 3591.29467 4023.15556 3591.74807 4023.5151 3592.15805 4023.92508 3592.51759 4024.37848 3592.82054 4024.86754 3593.06172 4025.3839 3593.237 Z M 4064.45309 3587.3855 L 4064.32509 3587.12593 4064.02214 3586.67253 4063.6626 3586.26255 4063.25262 3585.90301 4062.79922 3585.60006 4062.31016 3585.35888 4061.7938 3585.1836 4061.5554 3585.13618 4061.5554 3587.3855 4064.45309 3587.3855 Z M 4061.5554 3529.8153 L 4061.5554 3532.06462 4061.7938 3532.0172 4062.31016 3531.84192 4062.79922 3531.60074 4063.25262 3531.29779 4063.6626 3530.93825 4064.02214 3530.52827 4064.32509 3530.07487 4064.45309 3529.8153 4061.5554 3529.8153 Z M 4025.62255 3526.1657 L 4025.62255 3523.91638 4025.38415 3523.9638 4024.86779 3524.13908 4024.37873 3524.38026 4023.92533 3524.68321 4023.51535 3525.04275 4023.15581 3525.45273 4022.85286 3525.90613 4022.72486 3526.1657 4025.62255 3526.1657 Z M 4050.32973 3641.25795 L 4050.2048 3640.99851 4049.95328 3640.6296 4049.64958 3640.3023 4049.3005 3640.02391 4048.91382 3639.80067 4048.4982 3639.63754 4048.0629 3639.53819 4047.86765 3639.52356 4047.86765 3641.25795 4050.32973 3641.25795 Z M 4050.33043 3675.27355 L 4050.2055 3675.01411 4049.95398 3674.6452 4049.65028 3674.3179 4049.3012 3674.03951 4048.91452 3673.81627 4048.4989 3673.65314 4048.0636 3673.55379 4047.86835 3673.53916 4047.86835 3675.27355 4050.33043 3675.27355 Z M 4043.43135 3679.47644 L 4043.43135 3677.74205 4040.96927 3677.74205 4041.0942 3678.00149 4041.34572 3678.3704 4041.64942 3678.6977 4041.9985 3678.97609 4042.38518 3679.19933 4042.8008 3679.36246 4043.2361 3679.46181 4043.43135 3679.47644 Z M 4047.86765 3643.72645 L 4047.86765 3645.46084 4048.0629 3645.44621 4048.4982 3645.34686 4048.91382 3645.18373 4049.3005 3644.96049 4049.64958 3644.6821 4049.95328 3644.3548 4050.2048 3643.98589 4050.32973 3643.72645 4047.86765 3643.72645 Z M 4047.86835 3677.74205 L 4047.86835 3679.47644 4048.0636 3679.46181 4048.4989 3679.36246 4048.91452 3679.19933 4049.3012 3678.97609 4049.65028 3678.6977 4049.95398 3678.3704 4050.2055 3678.00149 4050.33043 3677.74205 4047.86835 3677.74205 Z M 4041.0935 3640.99851 L 4040.96857 3641.25795 4043.43065 3641.25795 4043.43065 3639.52356 4043.2354 3639.53819 4042.8001 3639.63754 4042.38448 3639.80067 4041.9978 3640.02391 4041.64872 3640.3023 4041.34502 3640.6296 4041.0935 3640.99851 Z M 4024.95215 3640.99851 L 4024.82722 3641.25795 4027.09245 3641.25795 4027.09245 3639.53855 4026.65875 3639.63754 4026.24313 3639.80067 4025.85645 3640.02391 4025.50737 3640.3023 4025.20367 3640.6296 4024.95215 3640.99851 Z M 4033.40098 3675.27355 L 4033.27605 3675.01411 4033.02453 3674.6452 4032.72083 3674.3179 4032.37175 3674.03951 4031.98507 3673.81627 4031.56945 3673.65314 4031.13575 3673.55415 4031.13575 3675.27355 4033.40098 3675.27355 Z M 4031.13575 3679.46145 L 4031.56945 3679.36246 4031.98507 3679.19933 4032.37175 3678.97609 4032.72083 3678.6977 4033.02453 3678.3704 4033.27605 3678.00149 4033.40098 3677.74205 4031.13575 3677.74205 4031.13575 3679.46145 Z M 4027.09245 3679.46145 L 4027.09245 3677.74205 4024.82722 3677.74205 4024.95215 3678.00149 4025.20367 3678.3704 4025.50737 3678.6977 4025.85645 3678.97609 4026.24313 3679.19933 4026.65875 3679.36246 4027.09245 3679.46145 Z M 4027.09245 3645.44585 L 4027.09245 3643.72645 4024.82722 3643.72645 4024.95215 3643.98589 4025.20367 3644.3548 4025.50737 3644.6821 4025.85645 3644.96049 4026.24313 3645.18373 4026.65875 3645.34686 4027.09245 3645.44585 Z M 4027.09245 3675.27355 L 4027.09245 3673.55415 4026.65875 3673.65314 4026.24313 3673.81627 4025.85645 3674.03951 4025.50737 3674.3179 4025.20367 3674.6452 4024.95215 3675.01411 4024.82722 3675.27355 4027.09245 3675.27355 Z M 4031.13575 3643.72645 L 4031.13575 3645.44585 4031.56945 3645.34686 4031.98507 3645.18373 4032.37175 3644.96049 4032.72083 3644.6821 4033.02453 3644.3548 4033.27605 3643.98589 4033.40098 3643.72645 4031.13575 3643.72645 Z M 4033.40098 3641.25795 L 4033.27605 3640.99851 4033.02453 3640.6296 4032.72083 3640.3023 4032.37175 3640.02391 4031.98507 3639.80067 4031.56945 3639.63754 4031.13575 3639.53855 4031.13575 3641.25795 4033.40098 3641.25795 Z M 4158.1752 3688.1752 L 4158.1752 3686.26176 4157.91563 3686.38976 4157.46223 3686.69271 4157.05225 3687.05225 4156.69271 3687.46223 4156.38976 3687.91563 4156.26176 3688.1752 4158.1752 3688.1752 Z M 4158.1752 3693.73824 L 4158.1752 3691.8248 4156.26176 3691.8248 4156.38976 3692.08437 4156.69271 3692.53777 4157.05225 3692.94775 4157.46223 3693.30729 4157.91563 3693.61024 4158.1752 3693.73824 Z M 4163.73824 3688.1752 L 4163.61024 3687.91563 4163.30729 3687.46223 4162.94775 3687.05225 4162.53777 3686.69271 4162.08437 3686.38976 4161.8248 3686.26176 4161.8248 3688.1752 4163.73824 3688.1752 Z M 4161.8248 3691.8248 L 4161.8248 3693.73824 4162.08437 3693.61024 4162.53777 3693.30729 4162.94775 3692.94775 4163.30729 3692.53777 4163.61024 3692.08437 4163.73824 3691.8248 4161.8248 3691.8248 Z " stroke-width="0" layerid="2" attachedcopperid="gge5560" c_shapetype="line" id="gge5560_0" class=""></path><polyline points="4173 3540.5 4173 3615 4178 3620" stroke-width="1"  stroke-linecap="round" fill="none" layerid="2" net="U2_5" id="gge4170" locked="0" /><polyline points="4168 3540.5 4168 3619.5 4162.5 3625" stroke-width="1"  stroke-linecap="round" fill="none" layerid="2" net="U2_13" id="gge4167" locked="0" /><polyline points="4225.5 3607.5 4225.5 3632.5" stroke-width="1"  stroke-linecap="round" fill="none" layerid="2" net="UD-" id="gge4639" locked="0" /><polyline points="4085.5 3555 4085.5 3619.74" stroke-width="1"  stroke-linecap="round" fill="none" layerid="2" net="DD-" id="gge5425" locked="0" /><polyline points="4080.331 3544.821 4080.0681 3682.5" stroke-width="2"  stroke-linecap="round" fill="none" layerid="2" net="D_VCC" id="gge5346" locked="0" /><polyline points="4041.5 3654.5 4037 3654.5 4037 3694.5" stroke-width="1"  stroke-linecap="round" fill="none" layerid="2" net="DFP-C_A5" id="gge5191" locked="0" /><polyline points="4292.5 3622.5 4292.5 3665.4209" stroke-width="1"  stroke-linecap="round" fill="none" layerid="2" net="UFP_A5" id="gge5131" locked="0" /><polyline points="4268.5 3651.051 4268.5 3669.949" stroke-width="2"  stroke-linecap="round" fill="none" layerid="2" net="U_VCC" id="gge4377" locked="0" /><polyline points="4181 3605 4181 3635" stroke-width="1"  stroke-linecap="round" fill="none" layerid="2" net="U_GND" id="gge4263" locked="0" /><polyline points="4159 3605 4159 3635" stroke-width="1"  stroke-linecap="round" fill="none" layerid="2" net="D_GND" id="gge4257" locked="0" /><g c_partid="part_pcbtext" c_etype="" c_origin="4174.25,3505.25" c_rotation="90" c_mirror="1" id="gge6110" locked="0" layerid="4" c_shapetype="group" ><path c_fontsize="8" c_fontfamily="" c_text="- - - - - - - - - - - - - -" d="M 4170.54 3505.25 L 4170.54 3511.8 M 4170.54 3519.8 L 4170.54 3526.34 M 4170.54 3534.34 L 4170.54 3540.89 M 4170.54 3548.89 L 4170.54 3555.43 M 4170.54 3563.43 L 4170.54 3569.98 M 4170.54 3577.98 L 4170.54 3584.52 M 4170.54 3592.52 L 4170.54 3599.07 M 4170.54 3607.07 L 4170.54 3613.61 M 4170.54 3621.61 L 4170.54 3628.16 M 4170.54 3636.16 L 4170.54 3642.7 M 4170.54 3650.7 L 4170.54 3657.25 M 4170.54 3665.25 L 4170.54 3671.8 M 4170.54 3679.8 L 4170.54 3686.34 M 4170.54 3694.34 L 4170.54 3700.89" fill="none"  stroke-width="0.8"  /></g><g c_partid="part_pcbtext" c_etype="pinpart" c_origin="4125.5,3534" c_rotation="90" c_mirror="1" id="gge6146" locked="0" layerid="4" c_shapetype="group" ><path c_fontsize="16" c_fontfamily="" c_text="Downstream" d="M 4109.35 3534 L 4124.63 3534 M 4109.35 3534 L 4109.35 3539.09 L 4110.08 3541.27 L 4111.54 3542.73 L 4112.99 3543.45 L 4115.17 3544.18 L 4118.81 3544.18 L 4120.99 3543.45 L 4122.45 3542.73 L 4123.9 3541.27 L 4124.63 3539.09 L 4124.63 3534 M 4114.45 3552.62 L 4115.17 3551.16 L 4116.63 3549.71 L 4118.81 3548.98 L 4120.26 3548.98 L 4122.45 3549.71 L 4123.9 3551.16 L 4124.63 3552.62 L 4124.63 3554.8 L 4123.9 3556.25 L 4122.45 3557.71 L 4120.26 3558.44 L 4118.81 3558.44 L 4116.63 3557.71 L 4115.17 3556.25 L 4114.45 3554.8 L 4114.45 3552.62 M 4114.45 3563.24 L 4124.63 3566.15 M 4114.45 3569.05 L 4124.63 3566.15 M 4114.45 3569.05 L 4124.63 3571.96 M 4114.45 3574.87 L 4124.63 3571.96 M 4114.45 3579.67 L 4124.63 3579.67 M 4117.35 3579.67 L 4115.17 3581.85 L 4114.45 3583.31 L 4114.45 3585.49 L 4115.17 3586.95 L 4117.35 3587.67 L 4124.63 3587.67 M 4116.63 3600.47 L 4115.17 3599.75 L 4114.45 3597.56 L 4114.45 3595.38 L 4115.17 3593.2 L 4116.63 3592.47 L 4118.08 3593.2 L 4118.81 3594.65 L 4119.54 3598.29 L 4120.26 3599.75 L 4121.72 3600.47 L 4122.45 3600.47 L 4123.9 3599.75 L 4124.63 3597.56 L 4124.63 3595.38 L 4123.9 3593.2 L 4122.45 3592.47 M 4109.35 3607.45 L 4121.72 3607.45 L 4123.9 3608.18 L 4124.63 3609.64 L 4124.63 3611.09 M 4114.45 3605.27 L 4114.45 3610.36 M 4114.45 3615.89 L 4124.63 3615.89 M 4118.81 3615.89 L 4116.63 3616.62 L 4115.17 3618.07 L 4114.45 3619.53 L 4114.45 3621.71 M 4118.81 3626.51 L 4118.81 3635.24 L 4117.35 3635.24 L 4115.9 3634.51 L 4115.17 3633.78 L 4114.45 3632.33 L 4114.45 3630.15 L 4115.17 3628.69 L 4116.63 3627.24 L 4118.81 3626.51 L 4120.26 3626.51 L 4122.45 3627.24 L 4123.9 3628.69 L 4124.63 3630.15 L 4124.63 3632.33 L 4123.9 3633.78 L 4122.45 3635.24 M 4114.45 3648.76 L 4124.63 3648.76 M 4116.63 3648.76 L 4115.17 3647.31 L 4114.45 3645.85 L 4114.45 3643.67 L 4115.17 3642.22 L 4116.63 3640.76 L 4118.81 3640.04 L 4120.26 3640.04 L 4122.45 3640.76 L 4123.9 3642.22 L 4124.63 3643.67 L 4124.63 3645.85 L 4123.9 3647.31 L 4122.45 3648.76 M 4114.45 3653.56 L 4124.63 3653.56 M 4117.35 3653.56 L 4115.17 3655.75 L 4114.45 3657.2 L 4114.45 3659.38 L 4115.17 3660.84 L 4117.35 3661.56 L 4124.63 3661.56 M 4117.35 3661.56 L 4115.17 3663.75 L 4114.45 3665.2 L 4114.45 3667.38 L 4115.17 3668.84 L 4117.35 3669.56 L 4124.63 3669.56" fill="none"  stroke-width="0.8"  /></g><g c_partid="part_pcbtext" c_etype="pinpart" c_origin="4236,3552.5" c_rotation="90" c_mirror="1" id="gge6218" locked="0" layerid="4" c_shapetype="group" ><path c_fontsize="16" c_fontfamily="" c_text="Upstream" d="M 4219.8545 3552.5 L 4230.7636 3552.5 L 4232.9455 3553.2273 L 4234.4 3554.6818 L 4235.1273 3556.8636 L 4235.1273 3558.3182 L 4234.4 3560.5 L 4232.9455 3561.9545 L 4230.7636 3562.6818 L 4219.8545 3562.6818 M 4224.9455 3567.4818 L 4240.2182 3567.4818 M 4227.1273 3567.4818 L 4225.6727 3568.9364 L 4224.9455 3570.3909 L 4224.9455 3572.5727 L 4225.6727 3574.0273 L 4227.1273 3575.4818 L 4229.3091 3576.2091 L 4230.7636 3576.2091 L 4232.9455 3575.4818 L 4234.4 3574.0273 L 4235.1273 3572.5727 L 4235.1273 3570.3909 L 4234.4 3568.9364 L 4232.9455 3567.4818 M 4227.1273 3589.0091 L 4225.6727 3588.2818 L 4224.9455 3586.1 L 4224.9455 3583.9182 L 4225.6727 3581.7364 L 4227.1273 3581.0091 L 4228.5818 3581.7364 L 4229.3091 3583.1909 L 4230.0364 3586.8273 L 4230.7636 3588.2818 L 4232.2182 3589.0091 L 4232.9455 3589.0091 L 4234.4 3588.2818 L 4235.1273 3586.1 L 4235.1273 3583.9182 L 4234.4 3581.7364 L 4232.9455 3581.0091 M 4219.8545 3595.9909 L 4232.2182 3595.9909 L 4234.4 3596.7182 L 4235.1273 3598.1727 L 4235.1273 3599.6273 M 4224.9455 3593.8091 L 4224.9455 3598.9 M 4224.9455 3604.4273 L 4235.1273 3604.4273 M 4229.3091 3604.4273 L 4227.1273 3605.1545 L 4225.6727 3606.6091 L 4224.9455 3608.0636 L 4224.9455 3610.2455 M 4229.3091 3615.0455 L 4229.3091 3623.7727 L 4227.8545 3623.7727 L 4226.4 3623.0455 L 4225.6727 3622.3182 L 4224.9455 3620.8636 L 4224.9455 3618.6818 L 4225.6727 3617.2273 L 4227.1273 3615.7727 L 4229.3091 3615.0455 L 4230.7636 3615.0455 L 4232.9455 3615.7727 L 4234.4 3617.2273 L 4235.1273 3618.6818 L 4235.1273 3620.8636 L 4234.4 3622.3182 L 4232.9455 3623.7727 M 4224.9455 3637.3 L 4235.1273 3637.3 M 4227.1273 3637.3 L 4225.6727 3635.8455 L 4224.9455 3634.3909 L 4224.9455 3632.2091 L 4225.6727 3630.7545 L 4227.1273 3629.3 L 4229.3091 3628.5727 L 4230.7636 3628.5727 L 4232.9455 3629.3 L 4234.4 3630.7545 L 4235.1273 3632.2091 L 4235.1273 3634.3909 L 4234.4 3635.8455 L 4232.9455 3637.3 M 4224.9455 3642.1 L 4235.1273 3642.1 M 4227.8545 3642.1 L 4225.6727 3644.2818 L 4224.9455 3645.7364 L 4224.9455 3647.9182 L 4225.6727 3649.3727 L 4227.8545 3650.1 L 4235.1273 3650.1 M 4227.8545 3650.1 L 4225.6727 3652.2818 L 4224.9455 3653.7364 L 4224.9455 3655.9182 L 4225.6727 3657.3727 L 4227.8545 3658.1 L 4235.1273 3658.1" fill="none"  stroke-width="0.8"  /></g><g c_partid="part_pad" c_etype="pinpart" c_origin="4028.4315,3589.21" layerid="11" number="5" net="D_GND" plated ="Y"  id="gge1149" locked="0" c_rotation="270" c_width="6.2992" c_height="10.2362" title="D_GND" c_shape="OVAL" pasteexpansion="0" solderexpansion="0.2"><polyline  c_etype="pad_shell" points="4030.4 3589.21 4026.463 3589.21" layerid="11" stroke-width="6.2992" /><polyline c_etype="pad_hole" points="4026.4629 3589.2103 4030.3998 3589.2103" layerid="11" stroke-width="3.5434"></polyline></g><g c_partid="part_pad" c_etype="pinpart" c_origin="4028.4315,3527.99" layerid="11" number="5" net="D_GND" plated ="Y"  id="gge1164" locked="0" c_rotation="270" c_width="6.2992" c_height="10.2362" title="D_GND" c_shape="OVAL" pasteexpansion="0" solderexpansion="0.2"><polyline  c_etype="pad_shell" points="4030.4 3527.99 4026.463 3527.99" layerid="11" stroke-width="6.2992" /><polyline c_etype="pad_hole" points="4026.463 3527.9905 4030.4002 3527.9905" layerid="11" stroke-width="3.5434"></polyline></g><g c_partid="part_pad" c_etype="pinpart" c_origin="4058.7465,3527.99" layerid="11" number="5" net="D_GND" plated ="Y"  id="gge1179" locked="0" c_rotation="270" c_width="6.2992" c_height="10.2362" title="D_GND" c_shape="OVAL" pasteexpansion="0" solderexpansion="0.2"><polyline  c_etype="pad_shell" points="4060.715 3527.99 4056.778 3527.99" layerid="11" stroke-width="6.2992" /><polyline c_etype="pad_hole" points="4056.7779 3527.9905 4060.7148 3527.9905" layerid="11" stroke-width="3.5434"></polyline></g><g c_partid="part_pad" c_etype="pinpart" c_origin="4058.7465,3589.21" layerid="11" number="5" net="D_GND" plated ="Y"  id="gge1194" locked="0" c_rotation="270" c_width="6.2992" c_height="10.2362" title="D_GND" c_shape="OVAL" pasteexpansion="0" solderexpansion="0.2"><polyline  c_etype="pad_shell" points="4060.715 3589.21 4056.778 3589.21" layerid="11" stroke-width="6.2992" /><polyline c_etype="pad_hole" points="4056.7779 3589.2103 4060.7148 3589.2103" layerid="11" stroke-width="3.5434"></polyline></g><g c_partid="part_pad" c_etype="pinpart" c_origin="4045.649,3642.492" layerid="11" number="17" net="D_GND" plated ="Y"  id="gge1518" locked="0" c_rotation="270" c_width="3.937" c_height="7.874" title="D_GND" c_shape="OVAL" pasteexpansion="0" solderexpansion="0.2"><polyline  c_etype="pad_shell" points="4047.6175 3642.492 4043.6805 3642.492" layerid="11" stroke-width="3.937" /><polyline c_etype="pad_hole" points="4043.4838 3642.4922 4047.8145 3642.4922" layerid="11" stroke-width="2.3622"></polyline></g><g c_partid="part_pad" c_etype="pinpart" c_origin="4045.65,3676.508" layerid="11" number="20" net="D_GND" plated ="Y"  id="gge1533" locked="0" c_rotation="270" c_width="3.937" c_height="7.874" title="D_GND" c_shape="OVAL" pasteexpansion="0" solderexpansion="0.2"><polyline  c_etype="pad_shell" points="4047.6185 3676.508 4043.6815 3676.508" layerid="11" stroke-width="3.937" /><polyline c_etype="pad_hole" points="4043.4845 3676.5078 4047.8152 3676.5078" layerid="11" stroke-width="2.3622"></polyline></g><g c_partid="part_pad" c_etype="pinpart" c_origin="4029.114,3676.508" layerid="11" number="19" net="D_GND" plated ="Y"  id="gge1548" locked="0" c_rotation="270" c_width="3.937" c_height="7.0866" title="D_GND" c_shape="OVAL" pasteexpansion="0" solderexpansion="0.2"><polyline  c_etype="pad_shell" points="4030.6888 3676.508 4027.5392 3676.508" layerid="11" stroke-width="3.937" /><polyline c_etype="pad_hole" points="4027.5393 3676.5078 4030.6889 3676.5078" layerid="11" stroke-width="2.3622"></polyline></g><g c_partid="part_pad" c_etype="pinpart" c_origin="4029.114,3642.492" layerid="11" number="18" net="D_GND" plated ="Y"  id="gge1563" locked="0" c_rotation="270" c_width="3.937" c_height="7.0866" title="D_GND" c_shape="OVAL" pasteexpansion="0" solderexpansion="0.2"><polyline  c_etype="pad_shell" points="4030.6888 3642.492 4027.5392 3642.492" layerid="11" stroke-width="3.937" /><polyline c_etype="pad_hole" points="4027.5393 3642.4922 4030.6889 3642.4922" layerid="11" stroke-width="2.3622"></polyline></g><g c_partid="part_pad" c_etype="pinpart" c_origin="4282.351,3677.508" layerid="11" number="17" net="U_GND" plated ="Y"  id="gge1887" locked="0" c_rotation="90" c_width="3.937" c_height="7.874" title="U_GND" c_shape="OVAL" pasteexpansion="0" solderexpansion="0.2"><polyline  c_etype="pad_shell" points="4280.3825 3677.508 4284.3195 3677.508" layerid="11" stroke-width="3.937" /><polyline c_etype="pad_hole" points="4284.5162 3677.5078 4280.1855 3677.5078" layerid="11" stroke-width="2.3622"></polyline></g><g c_partid="part_pad" c_etype="pinpart" c_origin="4282.35,3643.492" layerid="11" number="20" net="U_GND" plated ="Y"  id="gge1902" locked="0" c_rotation="90" c_width="3.937" c_height="7.874" title="U_GND" c_shape="OVAL" pasteexpansion="0" solderexpansion="0.2"><polyline  c_etype="pad_shell" points="4280.3815 3643.492 4284.3185 3643.492" layerid="11" stroke-width="3.937" /><polyline c_etype="pad_hole" points="4284.5155 3643.4922 4280.1848 3643.4922" layerid="11" stroke-width="2.3622"></polyline></g><g c_partid="part_pad" c_etype="pinpart" c_origin="4298.886,3643.492" layerid="11" number="19" net="U_GND" plated ="Y"  id="gge1917" locked="0" c_rotation="90" c_width="3.937" c_height="7.0866" title="U_GND" c_shape="OVAL" pasteexpansion="0" solderexpansion="0.2"><polyline  c_etype="pad_shell" points="4297.3112 3643.492 4300.4608 3643.492" layerid="11" stroke-width="3.937" /><polyline c_etype="pad_hole" points="4300.4607 3643.4922 4297.3111 3643.4922" layerid="11" stroke-width="2.3622"></polyline></g><g c_partid="part_pad" c_etype="pinpart" c_origin="4298.886,3677.508" layerid="11" number="18" net="U_GND" plated ="Y"  id="gge1932" locked="0" c_rotation="90" c_width="3.937" c_height="7.0866" title="U_GND" c_shape="OVAL" pasteexpansion="0" solderexpansion="0.2"><polyline  c_etype="pad_shell" points="4297.3112 3677.508 4300.4608 3677.508" layerid="11" stroke-width="3.937" /><polyline c_etype="pad_hole" points="4300.4607 3677.5078 4297.3111 3677.5078" layerid="11" stroke-width="2.3622"></polyline></g><g c_partid="part_pad" c_etype="pinpart" c_origin="4140.0003,3689.9999" layerid="11" number="6" net="D_VCC" plated ="Y"  id="gge3342" locked="0" c_rotation="180" c_width="6.2992" c_height="6.2992" title="D_VCC" c_shape="ELLIPSE" pasteexpansion="0" solderexpansion="0.2"><ellipse c_etype="pad_shell" cx="4140.0003" cy="3689.9999" rx="3.1496" ry="3.1496" layerid="11" stroke-width="0"/><circle c_etype="pad_hole" cx="4140" cy="3690" r="1.9685" layerid="11" stroke-width="0"/></g><g c_partid="part_pad" c_etype="pinpart" c_origin="4160.0003,3689.9999" layerid="11" number="4" net="D_GND" plated ="Y"  id="gge3357" locked="0" c_rotation="180" c_width="6.2992" c_height="6.2992" title="D_GND" c_shape="ELLIPSE" pasteexpansion="0" solderexpansion="0.2"><ellipse c_etype="pad_shell" cx="4160.0003" cy="3689.9999" rx="3.1496" ry="3.1496" layerid="11" stroke-width="0"/><circle c_etype="pad_hole" cx="4160" cy="3690" r="1.9685" layerid="11" stroke-width="0"/></g><g c_partid="part_pad" c_etype="pinpart" c_origin="4180.0003,3689.9999" layerid="11" number="2" net="U_GND" plated ="Y"  id="gge3372" locked="0" c_rotation="180" c_width="6.2992" c_height="6.2992" title="U_GND" c_shape="ELLIPSE" pasteexpansion="0" solderexpansion="0.2"><ellipse c_etype="pad_shell" cx="4180.0003" cy="3689.9999" rx="3.1496" ry="3.1496" layerid="11" stroke-width="0"/><circle c_etype="pad_hole" cx="4180" cy="3690" r="1.9685" layerid="11" stroke-width="0"/></g><g c_partid="part_pad" c_etype="pinpart" c_origin="4190.0003,3689.9999" layerid="11" number="1" net="U_VCC" plated ="Y"  id="gge3387" locked="0" c_rotation="180" c_width="6.2992" c_height="6.2992" title="U_VCC" c_shape="RECT" pasteexpansion="0" solderexpansion="0.2"><polygon  c_etype="pad_shell" points="4193.1496 3693.1496 4186.8504 3693.1496 4186.8504 3686.8504 4193.1496 3686.8504" layerid="11" stroke-width="0" /><circle c_etype="pad_hole" cx="4190" cy="3690" r="1.9685" layerid="11" stroke-width="0"/></g><g c_partid="part_via" c_etype="pinpart" c_shapetype="group" net="U2_13" c_origin="4168,3540.5" layerid="11" id="gge4116" locked="0" solderexpansion=""><circle cx="4168" cy="3540.5" r="1.2205" stroke-width="0" c_etype="pad_shell"/><circle cx="4168" cy="3540.5" r="0.6102"  stroke-width="0" c_etype="pad_hole"/></g><g c_partid="part_via" c_etype="pinpart" c_shapetype="group" net="U2_5" c_origin="4173,3540.5" layerid="11" id="gge4128" locked="0" solderexpansion=""><circle cx="4173" cy="3540.5" r="1.2205" stroke-width="0" c_etype="pad_shell"/><circle cx="4173" cy="3540.5" r="0.6102"  stroke-width="0" c_etype="pad_hole"/></g><g c_partid="part_via" c_etype="pinpart" c_shapetype="group" net="U2_5" c_origin="4178,3620" layerid="11" id="gge4140" locked="0" solderexpansion=""><circle cx="4178" cy="3620" r="1.2205" stroke-width="0" c_etype="pad_shell"/><circle cx="4178" cy="3620" r="0.6102"  stroke-width="0" c_etype="pad_hole"/></g><g c_partid="part_via" c_etype="pinpart" c_shapetype="group" net="U2_13" c_origin="4162.5,3625" layerid="11" id="gge4152" locked="0" solderexpansion=""><circle cx="4162.5" cy="3625" r="1.2205" stroke-width="0" c_etype="pad_shell"/><circle cx="4162.5" cy="3625" r="0.6102"  stroke-width="0" c_etype="pad_hole"/></g><g c_partid="part_via" c_etype="pinpart" c_shapetype="group" net="U_GND" c_origin="4181,3635" layerid="11" id="gge4206" locked="0" solderexpansion=""><circle cx="4181" cy="3635" r="1.2205" stroke-width="0" c_etype="pad_shell"/><circle cx="4181" cy="3635" r="0.6102"  stroke-width="0" c_etype="pad_hole"/></g><g c_partid="part_via" c_etype="pinpart" c_shapetype="group" net="U_GND" c_origin="4181,3605" layerid="11" id="gge4218" locked="0" solderexpansion=""><circle cx="4181" cy="3605" r="1.2205" stroke-width="0" c_etype="pad_shell"/><circle cx="4181" cy="3605" r="0.6102"  stroke-width="0" c_etype="pad_hole"/></g><g c_partid="part_via" c_etype="pinpart" c_shapetype="group" net="D_GND" c_origin="4159,3605" layerid="11" id="gge4230" locked="0" solderexpansion=""><circle cx="4159" cy="3605" r="1.2205" stroke-width="0" c_etype="pad_shell"/><circle cx="4159" cy="3605" r="0.6102"  stroke-width="0" c_etype="pad_hole"/></g><g c_partid="part_via" c_etype="pinpart" c_shapetype="group" net="D_GND" c_origin="4159,3635" layerid="11" id="gge4242" locked="0" solderexpansion=""><circle cx="4159" cy="3635" r="1.2205" stroke-width="0" c_etype="pad_shell"/><circle cx="4159" cy="3635" r="0.6102"  stroke-width="0" c_etype="pad_hole"/></g><g c_partid="part_via" c_etype="pinpart" c_shapetype="group" net="U_VCC" c_origin="4268.5,3669.949" layerid="11" id="gge4350" locked="0" solderexpansion=""><circle cx="4268.5" cy="3669.949" r="1.2205" stroke-width="0" c_etype="pad_shell"/><circle cx="4268.5" cy="3669.949" r="0.6102"  stroke-width="0" c_etype="pad_hole"/></g><g c_partid="part_via" c_etype="pinpart" c_shapetype="group" net="U_VCC" c_origin="4268.5,3651.051" layerid="11" id="gge4362" locked="0" solderexpansion=""><circle cx="4268.5" cy="3651.051" r="1.2205" stroke-width="0" c_etype="pad_shell"/><circle cx="4268.5" cy="3651.051" r="0.6102"  stroke-width="0" c_etype="pad_hole"/></g><g c_partid="part_via" c_etype="pinpart" c_shapetype="group" net="UD-" c_origin="4225.5,3607.5" layerid="11" id="gge4597" locked="0" solderexpansion=""><circle cx="4225.5" cy="3607.5" r="1.2205" stroke-width="0" c_etype="pad_shell"/><circle cx="4225.5" cy="3607.5" r="0.6102"  stroke-width="0" c_etype="pad_hole"/></g><g c_partid="part_via" c_etype="pinpart" c_shapetype="group" net="U_GND" c_origin="4250,3632.5" layerid="11" id="gge4660" locked="0" solderexpansion=""><circle cx="4250" cy="3632.5" r="1.2205" stroke-width="0" c_etype="pad_shell"/><circle cx="4250" cy="3632.5" r="0.6102"  stroke-width="0" c_etype="pad_hole"/></g><g c_partid="part_via" c_etype="pinpart" c_shapetype="group" net="UFP_A5" c_origin="4292.5,3665.421" layerid="11" id="gge5104" locked="0" solderexpansion=""><circle cx="4292.5" cy="3665.421" r="1.2205" stroke-width="0" c_etype="pad_shell"/><circle cx="4292.5" cy="3665.421" r="0.6102"  stroke-width="0" c_etype="pad_hole"/></g><g c_partid="part_via" c_etype="pinpart" c_shapetype="group" net="UFP_A5" c_origin="4292.5,3622.5" layerid="11" id="gge5116" locked="0" solderexpansion=""><circle cx="4292.5" cy="3622.5" r="1.2205" stroke-width="0" c_etype="pad_shell"/><circle cx="4292.5" cy="3622.5" r="0.6102"  stroke-width="0" c_etype="pad_hole"/></g><g c_partid="part_via" c_etype="pinpart" c_shapetype="group" net="DFP-C_A5" c_origin="4041.5,3654.5" layerid="11" id="gge5164" locked="0" solderexpansion=""><circle cx="4041.5" cy="3654.5" r="1.2205" stroke-width="0" c_etype="pad_shell"/><circle cx="4041.5" cy="3654.5" r="0.6102"  stroke-width="0" c_etype="pad_hole"/></g><g c_partid="part_via" c_etype="pinpart" c_shapetype="group" net="DFP-C_A5" c_origin="4037,3694.5" layerid="11" id="gge5176" locked="0" solderexpansion=""><circle cx="4037" cy="3694.5" r="1.2205" stroke-width="0" c_etype="pad_shell"/><circle cx="4037" cy="3694.5" r="0.6102"  stroke-width="0" c_etype="pad_hole"/></g><g c_partid="part_via" c_etype="pinpart" c_shapetype="group" net="D_GND" c_origin="4110,3616" layerid="11" id="gge5227" locked="0" solderexpansion=""><circle cx="4110" cy="3616" r="1.2205" stroke-width="0" c_etype="pad_shell"/><circle cx="4110" cy="3616" r="0.6102"  stroke-width="0" c_etype="pad_hole"/></g><g c_partid="part_via" c_etype="pinpart" c_shapetype="group" net="D_VCC" c_origin="4080.331,3544.821" layerid="11" id="gge5275" locked="0" solderexpansion=""><circle cx="4080.331" cy="3544.821" r="1.2205" stroke-width="0" c_etype="pad_shell"/><circle cx="4080.331" cy="3544.821" r="0.6102"  stroke-width="0" c_etype="pad_hole"/></g><g c_partid="part_via" c_etype="pinpart" c_shapetype="group" net="D_VCC" c_origin="4080,3648.5" layerid="11" id="gge5303" locked="0" solderexpansion=""><circle cx="4080" cy="3648.5" r="1.2205" stroke-width="0" c_etype="pad_shell"/><circle cx="4080" cy="3648.5" r="0.6102"  stroke-width="0" c_etype="pad_hole"/></g><g c_partid="part_via" c_etype="pinpart" c_shapetype="group" net="D_VCC" c_origin="4080.0681,3682.5" layerid="11" id="gge5330" locked="0" solderexpansion=""><circle cx="4080.0681" cy="3682.5" r="1.2205" stroke-width="0" c_etype="pad_shell"/><circle cx="4080.0681" cy="3682.5" r="0.6102"  stroke-width="0" c_etype="pad_hole"/></g><g c_partid="part_via" c_etype="pinpart" c_shapetype="group" net="DD-" c_origin="4085.5,3555" layerid="11" id="gge5377" locked="0" solderexpansion=""><circle cx="4085.5" cy="3555" r="1.2205" stroke-width="0" c_etype="pad_shell"/><circle cx="4085.5" cy="3555" r="0.6102"  stroke-width="0" c_etype="pad_hole"/></g><g c_partid="part_via" c_etype="pinpart" c_shapetype="group" net="DD-" c_origin="4085.5,3619.74" layerid="11" id="gge5410" locked="0" solderexpansion=""><circle cx="4085.5" cy="3619.74" r="1.2205" stroke-width="0" c_etype="pad_shell"/><circle cx="4085.5" cy="3619.74" r="0.6102"  stroke-width="0" c_etype="pad_hole"/></g><g c_partid="part_via" c_etype="pinpart" c_shapetype="group" net="UD-" c_origin="4225.5,3632.51" layerid="11" id="gge5834" locked="0" solderexpansion=""><circle cx="4225.5" cy="3632.51" r="1.2205" stroke-width="0" c_etype="pad_shell"/><circle cx="4225.5" cy="3632.51" r="0.6102"  stroke-width="0" c_etype="pad_hole"/></g><g c_partid="part_hole" c_etype="pinpart" c_shapetype="group" c_origin="4043.602,3670.878" layerid="11" id="gge1344" locked="0" ><circle cx="4043.602" cy="3670.878" r="1.1811"  stroke-width="0" /></g><g c_partid="part_hole" c_etype="pinpart" c_shapetype="group" c_origin="4043.602,3648.122" layerid="11" id="gge1356" locked="0" ><circle cx="4043.602" cy="3648.122" r="1.1811"  stroke-width="0" /></g><g c_partid="part_hole" c_etype="pinpart" c_shapetype="group" c_origin="4284.398,3649.122" layerid="11" id="gge1713" locked="0" ><circle cx="4284.398" cy="3649.122" r="1.1811"  stroke-width="0" /></g><g c_partid="part_hole" c_etype="pinpart" c_shapetype="group" c_origin="4284.398,3671.878" layerid="11" id="gge1725" locked="0" ><circle cx="4284.398" cy="3671.878" r="1.1811"  stroke-width="0" /></g><polyline points="4020 3508.5 4020 3532.6162" stroke-width="1"  stroke-linecap="round" fill="none" layerid="10" net="S$5789" id="gge5788" locked="0" /><polyline points="4020 3696.5 4020 3584.5" stroke-width="1"  stroke-linecap="round" fill="none" layerid="10" net="" id="gge4074" locked="0" /><polyline points="4308 3508.5 4308 3696.5" stroke-width="1"  stroke-linecap="round" fill="none" layerid="10" net="" id="gge4062" locked="0" /><polyline points="4302 3702.5 4026 3702.5" stroke-width="1"  stroke-linecap="round" fill="none" layerid="10" net="" id="gge4068" locked="0" /><polyline points="4026 3502.5 4302 3502.5" stroke-width="1"  stroke-linecap="round" fill="none" layerid="10" net="" id="gge4056" locked="0" /><polyline points="4058.7464 3584.5846 4058.7464 3532.6162" stroke-width="1"  stroke-linecap="round" fill="none" layerid="10" net="" id="gge1086" locked="0" /><polyline points="4058.7464 3532.6162 4018.5473 3532.6162" stroke-width="1"  stroke-linecap="round" fill="none" layerid="10" net="" id="gge1089" locked="0" /><polyline points="4058.7464 3584.5846 4018.5788 3584.5846" stroke-width="1"  stroke-linecap="round" fill="none" layerid="10" net="" id="gge1092" locked="0" /><path d="M4302 3502.5A6 6 0 0 1 4308 3508.5" locked="0"  fill="none" stroke-width="1" c_helper_type="arc2" net="" layerid="10" id="gge4059" /><path d="M4308 3696.5A6 6 0 0 1 4302 3702.5" locked="0"  fill="none" stroke-width="1" c_helper_type="arc2" net="" layerid="10" id="gge4065" /><path d="M4026 3702.5A6 6 0 0 1 4020 3696.5" locked="0"  fill="none" stroke-width="1" c_helper_type="arc2" net="" layerid="10" id="gge4071" /><path d="M4020 3508.5A6 6 0 0 1 4026 3502.5" locked="0"  fill="none" stroke-width="1" c_helper_type="arc2" net="" layerid="10" id="gge4077" /></svg>